:SAMPLES-PER-SECOND 30
:FULLY-SPECIFIED
:DEGREES
420
root  47.2942 31.6209 -1.83066 -168.069 79.7414 -168.836
RightUpLeg  -45.5958 -12.3551 -0.640779
RightLeg  68.3965 -0.135722 -1.15072
RightFoot  -19.8555 -0.220466 -1.16343
RightToes  2.32829e-010 0 -3.6325e-017
Spine  85.309 -15.7495 13.0703
Spine1  -11.7274 -3.09345 -5.46386
HEad  78.7449 -42.1333 -150.928
LeftShoulder1  0.987036 -14.8345 3.49013
LeftArm  -73.1779 -64.5243 15.1779
LeftForeArm  -13.8688 -14.7083 2.80765
LeftHand  -0.0340936 4.97999 2.5343
RightShoulder  -0.0295583 8.40999 -9.97668
RightArm  -63.4543 59.5458 -22.0627
RightForeArm  -44.1092 2.96422 -3.0429
RightHand  -1.11992 10.9234 -8.3537
LeftUpLeg  -52.8826 0.184672 3.11326
LeftLeg  61.3554 -2.97675 -5.32109
LeftFoot  -5.85783 -0.183684 4.58446
LeftToes  -3.54706e-010 1.16038e-010 5.28031e-012
421
root  47.2033 32.161 -1.53401 -165.689 80.062 -168.169
RightUpLeg  -46.2045 -12.6032 0.63459
RightLeg  65.2845 -0.0313623 -0.738463
RightFoot  -18.225 -0.256142 -2.23245
RightToes  2.32829e-010 0 -3.6325e-017
Spine  81.5727 -14.8576 13.1218
Spine1  -9.10209 -2.9073 -6.55568
HEad  79.0908 -43.9791 -151.215
LeftShoulder1  1.30978 -14.0064 1.12776
LeftArm  -69.4352 -65.8203 11.144
LeftForeArm  -11.6319 -15.4665 1.52786
LeftHand  -0.0658987 3.86607 3.54631
RightShoulder  0.0261072 8.21412 -9.41563
RightArm  -58.8613 60.2601 -11.832
RightForeArm  -42.2167 6.44425 -3.3028
RightHand  -1.25196 11.5682 -8.95009
LeftUpLeg  -52.8309 0.552901 3.75159
LeftLeg  57.763 -3.27377 -5.06433
LeftFoot  -4.51721 -0.183967 3.53112
LeftToes  -3.54706e-010 1.16038e-010 5.28031e-012
422
root  47.0417 32.8637 -1.16578 -164.528 80.2862 -167.799
RightUpLeg  -45.3081 -13.1259 1.80688
RightLeg  61.1116 0.2151 -0.106654
RightFoot  -16.2946 -0.255767 -3.30415
RightToes  2.32829e-010 0 -3.6325e-017
Spine  78.8043 -14.2945 12.9775
Spine1  -7.43959 -2.81492 -8.00389
HEad  79.0007 -43.9722 -151.026
LeftShoulder1  1.79348 -13.8789 -2.14433
LeftArm  -61.1554 -66.3562 4.63775
LeftForeArm  -9.0083 -15.0667 0.83287
LeftHand  -0.0948882 3.21506 4.25249
RightShoulder  0.264475 7.39289 -6.90159
RightArm  -52.2913 62.8772 -1.92293
RightForeArm  -40.5204 7.33611 -2.61956
RightHand  -1.32291 12.0588 -9.18192
LeftUpLeg  -51.3237 1.05118 4.3846
LeftLeg  53.3176 -3.95984 -5.20642
LeftFoot  -2.25986 -0.195153 2.66004
LeftToes  -3.54706e-010 1.16038e-010 5.28031e-012
423
root  46.8351 33.6945 -0.628541 -167.772 81.0127 -171.978
RightUpLeg  -44.1967 -13.021 2.3344
RightLeg  56.1262 0.451756 0.269276
RightFoot  -14.124 -0.185475 -3.84781
RightToes  2.32829e-010 0 -3.6325e-017
Spine  75.8035 -12.1121 11.3864
Spine1  -4.96361 -2.11455 -8.15372
HEad  78.7602 -44.5458 -151.701
LeftShoulder1  2.20342 -12.6295 -5.90429
LeftArm  -50.8281 -66.8308 -4.8214
LeftForeArm  -7.77171 -13.8312 0.602982
LeftHand  -0.0661005 3.63822 3.21092
RightShoulder  0.574365 6.97137 -3.39135
RightArm  -43.8594 65.9896 5.08152
RightForeArm  -40.0517 5.07248 -1.02166
RightHand  -1.30597 11.7447 -9.1925
LeftUpLeg  -49.181 2.2202 4.30406
LeftLeg  47.7053 -5.05263 -5.52356
LeftFoot  0.518083 -0.139823 1.30366
LeftToes  -3.54706e-010 1.16038e-010 5.28031e-012
424
root  46.7003 34.365 -0.142818 -165.023 81.4662 -170.152
RightUpLeg  -43.2159 -13.5931 4.05883
RightLeg  51.5191 1.09691 1.10489
RightFoot  -11.5616 -0.0900292 -5.63709
RightToes  2.32829e-010 0 -3.6325e-017
Spine  71.9404 -10.1843 11.4824
Spine1  -3.14183 -0.922504 -7.61495
HEad  78.2371 -44.4989 -152.261
LeftShoulder1  2.6266 -11.7115 -9.9279
LeftArm  -37.891 -66.2794 -18.2863
LeftForeArm  -7.75211 -12.1507 0.00965727
LeftHand  -0.101762 3.22376 4.72438
RightShoulder  0.902405 6.42464 0.772379
RightArm  -33.6991 66.9651 14.1403
RightForeArm  -34.8158 3.23199 0.255053
RightHand  -0.986609 10.4348 -7.62797
LeftUpLeg  -47.0154 3.02095 5.14137
LeftLeg  41.3054 -5.87601 -5.12077
LeftFoot  2.67583 -0.0450067 0.223399
LeftToes  -3.54706e-010 1.16038e-010 5.28031e-012
425
root  46.5384 35.1038 0.453131 -164.63 82.183 -170.626
RightUpLeg  -41.7888 -13.5734 5.46693
RightLeg  46.1424 1.54491 1.3948
RightFoot  -8.88531 0.0920338 -6.98499
RightToes  2.32829e-010 0 -3.6325e-017
Spine  68.4018 -8.10135 10.7208
Spine1  -1.72248 0.210212 -7.91239
HEad  78.3769 -44.2569 -153.101
LeftShoulder1  2.98243 -11.1056 -13.4373
LeftArm  -27.0075 -63.1141 -28.555
LeftForeArm  -9.21201 -9.57311 -1.08597
LeftHand  -0.108755 3.37712 5.43711
RightShoulder  1.159 5.70238 4.68762
RightArm  -21.6562 66.3658 26.301
RightForeArm  -32.9979 1.44945 1.55518
RightHand  -1.06943 10.3764 -8.24449
LeftUpLeg  -44.4356 4.97675 5.35761
LeftLeg  34.6259 -7.56818 -5.22254
LeftFoot  5.83197 0.10297 -0.894934
LeftToes  -3.54706e-010 1.16038e-010 5.28031e-012
426
root  46.3813 35.8267 1.05711 -165.661 82.2511 -172.851
RightUpLeg  -40.5134 -14.3053 6.82206
RightLeg  40.3743 2.26095 1.76301
RightFoot  -5.96961 0.345235 -8.24513
RightToes  2.32829e-010 0 -3.6325e-017
Spine  64.0008 -5.67484 9.8614
Spine1  0.461294 1.50947 -7.04077
HEad  78.1488 -42.8387 -155.31
LeftShoulder1  3.13732 -10.1404 -16.2716
LeftArm  -19.4535 -59.0504 -38.0132
LeftForeArm  -8.08605 -6.48571 -1.51877
LeftHand  -0.0722114 4.04898 4.74339
RightShoulder  1.39697 5.61028 7.82611
RightArm  -13.1153 62.9402 34.4324
RightForeArm  -32.4039 0.634872 2.60612
RightHand  -0.988532 10.0084 -7.82542
LeftUpLeg  -41.9145 6.65081 5.31091
LeftLeg  27.1063 -9.81685 -5.07766
LeftFoot  9.38502 0.508955 -3.07166
LeftToes  -3.54706e-010 1.16038e-010 5.28031e-012
427
root  46.2127 36.467 1.49563 -175.151 80.9677 177.314
RightUpLeg  -38.7444 -17.0228 6.64014
RightLeg  35.5676 3.60883 2.5042
RightFoot  -3.72247 0.553913 -8.67171
RightToes  2.32829e-010 0 -3.6325e-017
Spine  60.1113 -4.75121 9.28318
Spine1  2.2407 1.46262 -6.59065
HEad  78.3767 -42.2414 -156.803
LeftShoulder1  3.17904 -9.1147 -18.6367
LeftArm  -13.7356 -54.3859 -43.5163
LeftForeArm  -7.88835 -2.26026 -2.65597
LeftHand  -0.0843055 3.8633 4.88373
RightShoulder  1.50609 4.7734 11.0427
RightArm  -6.38004 58.4183 41.3444
RightForeArm  -31.9799 0.404286 3.5516
RightHand  -1.0212 10.0859 -8.03077
LeftUpLeg  -38.0006 5.92826 4.34057
LeftLeg  18.7015 -10.8449 -3.80743
LeftFoot  11.3212 1.31594 -7.0031
LeftToes  -3.54706e-010 1.16038e-010 5.28031e-012
428
root  46.0213 37.023 1.87926 175.853 78.6717 168.503
RightUpLeg  -36.7207 -20.5933 5.83425
RightLeg  31.3746 4.9451 3.00144
RightFoot  -1.79191 0.746324 -9.05548
RightToes  2.32829e-010 0 -3.6325e-017
Spine  56.4441 -4.36066 8.52049
Spine1  3.73346 0.907955 -6.47936
HEad  77.1399 -41.329 -157.071
LeftShoulder1  3.10232 -8.22431 -20.0265
LeftArm  -10.7379 -47.3904 -47.0965
LeftForeArm  -5.2693 -0.366415 -3.37568
LeftHand  -0.160718 2.33126 5.67564
RightShoulder  1.33248 3.19852 12.8964
RightArm  -1.08098 52.2842 48.761
RightForeArm  -30.9565 1.16105 4.13014
RightHand  -1.20443 10.3876 -9.21756
LeftUpLeg  -33.6046 3.59695 3.32784
LeftLeg  12.1851 -9.39471 -2.12326
LeftFoot  9.1223 2.33964 -13.1946
LeftToes  -3.54706e-010 1.16038e-010 5.28031e-012
429
root  45.8351 37.5225 2.24384 171.944 75.434 164.783
RightUpLeg  -34.5878 -23.9149 4.95024
RightLeg  27.1389 5.53061 2.80154
RightFoot  0.0834477 0.913135 -9.09623
RightToes  2.32829e-010 0 -3.6325e-017
Spine  53.2493 -4.29668 7.8902
Spine1  3.7298 0.175918 -6.27538
HEad  74.3329 -40.7659 -156.213
LeftShoulder1  3.07788 -7.28176 -22.2073
LeftArm  -9.60175 -39.7385 -48.1289
LeftForeArm  -1.34625 1.70685 -3.88078
LeftHand  -0.0543483 4.38883 4.25196
RightShoulder  1.32879 2.40507 15.8032
RightArm  3.55681 45.5023 51.9515
RightForeArm  -30.3352 1.04234 5.53431
RightHand  -1.3398 11.0111 -9.84336
LeftUpLeg  -30.5201 1.98056 1.49137
LeftLeg  10.5016 -8.08055 -1.61601
LeftFoot  5.84776 1.80028 -12.0555
LeftToes  -3.54706e-010 1.16038e-010 5.28031e-012
430
root  45.6496 37.9459 2.59953 169.377 71.7563 162.436
RightUpLeg  -32.3056 -25.958 3.13283
RightLeg  23.2993 4.46763 2.14915
RightFoot  1.53844 0.993158 -8.6872
RightToes  2.32829e-010 0 -3.6325e-017
Spine  50.2536 -4.26381 7.57553
Spine1  3.87897 -0.167808 -6.49909
HEad  72.2107 -40.025 -154.869
LeftShoulder1  3.09748 -6.77707 -23.9641
LeftArm  -9.30408 -32.8336 -47.9994
LeftForeArm  2.4241 3.63994 -4.09912
LeftHand  -0.020866 5.69127 3.58183
RightShoulder  1.19522 1.22975 18.8825
RightArm  7.1006 38.7648 52.2355
RightForeArm  -27.7143 1.14365 6.90917
RightHand  -1.22121 10.5436 -9.26258
LeftUpLeg  -27.8051 1.29656 -0.83842
LeftLeg  11.7525 -5.3717 -1.16437
LeftFoot  2.61027 1.01957 -8.43561
LeftToes  -3.54706e-010 1.16038e-010 5.28031e-012
431
root  45.4568 38.2697 2.93285 169.463 67.7338 163.433
RightUpLeg  -28.5019 -25.5047 -0.0933206
RightLeg  19.5961 -0.022597 1.9803
RightFoot  2.55718 0.984266 -7.90473
RightToes  2.32829e-010 0 -3.6325e-017
Spine  48.1312 -4.56853 7.99749
Spine1  3.42565 -0.322048 -6.96092
HEad  69.3517 -39.4442 -153.002
LeftShoulder1  3.06477 -5.81873 -26.7464
LeftArm  -8.17001 -27.1026 -45.4707
LeftForeArm  5.19093 5.0992 -5.40203
LeftHand  -0.0083657 6.60296 2.28145
RightShoulder  0.960802 -0.0773504 21.8168
RightArm  10.101 31.1665 51.8516
RightForeArm  -26.9491 2.67716 8.15481
RightHand  -1.3557 10.366 -10.3401
LeftUpLeg  -24.6743 3.10306 -2.91917
LeftLeg  14.5164 -2.38655 -0.49535
LeftFoot  -0.813017 0.496716 -5.35021
LeftToes  -3.54706e-010 1.16038e-010 5.28031e-012
